<svg width="100" height="100" viewBox="0 0 100 100" fill="none" xmlns="http://www.w3.org/2000/svg">
<path d="M84.9862 46.9189C85.0273 46.289 85.0273 45.6591 84.9862 45.0292L83.9314 44.8238C83.8903 43.7967 83.8218 42.7971 83.6986 41.7974L84.726 41.4277C84.6438 40.7978 84.5479 40.1816 84.4383 39.5653L83.3561 39.5242C83.1643 38.5246 82.9177 37.5386 82.6438 36.5664L83.6027 36.046C83.4246 35.4435 83.2328 34.8547 83.0136 34.2658L81.9451 34.4028C81.6027 33.4442 81.2054 32.513 80.7808 31.5955L81.6438 30.9245C81.3698 30.3631 81.0958 29.8016 80.7944 29.2539L79.7397 29.5551C79.2465 28.665 78.726 27.8023 78.1506 26.967L78.8903 26.1728C78.5342 25.6524 78.1643 25.1457 77.7807 24.6528L76.7944 25.1183C76.1643 24.3241 75.5068 23.5573 74.8218 22.8178L75.4246 21.914C74.9999 21.4621 74.5479 21.0102 74.0958 20.5857L73.2054 21.1882C72.4657 20.5035 71.6986 19.8462 70.8903 19.2163L71.3561 18.2304C70.8492 17.8469 70.3561 17.4772 69.8355 17.1212L69.0547 17.8606C68.2191 17.2855 67.3424 16.7651 66.452 16.2721L66.7533 15.2177C66.2054 14.9164 65.6438 14.6289 65.0821 14.3687L64.4109 15.2314C63.4931 14.8069 62.5616 14.4098 61.6027 14.0674L61.7397 12.9993C61.1506 12.7939 60.5479 12.6022 59.9451 12.4242L59.4246 13.3827C58.452 13.1089 57.4657 12.8624 56.4657 12.6707L56.4246 11.5889C55.8081 11.4793 55.1917 11.3697 54.5616 11.3013L54.178 12.3009C53.178 12.1777 52.178 12.0955 51.1643 12.0681L50.9588 11C50.6438 10.9863 49.3835 10.9863 49.0684 11L48.8629 12.0681C47.8492 12.0955 46.8355 12.1777 45.8355 12.3009L45.4794 11.2876C44.8492 11.3697 44.2328 11.4656 43.6164 11.5752L43.5753 12.657C42.5753 12.8487 41.589 13.0952 40.6164 13.369L40.0958 12.4105C39.4931 12.5885 38.8903 12.7802 38.3013 12.9856L38.4383 14.0537C37.4794 14.3961 36.5479 14.7932 35.6301 15.2177L34.9588 14.355C34.3972 14.6289 33.8355 14.9028 33.2876 15.204L33.589 16.2584C32.6986 16.7514 31.8355 17.2718 30.9999 17.8469L30.2054 17.1075C29.6849 17.4635 29.178 17.8332 28.6849 18.2167L29.1506 19.2026C28.3561 19.8325 27.589 20.4898 26.8492 21.1745L25.9314 20.5857C25.4794 21.0239 25.0273 21.4621 24.6027 21.914L25.2054 22.8178C24.5205 23.5573 23.8629 24.3241 23.2328 25.1183L22.2602 24.6528C21.8766 25.1594 21.5068 25.6524 21.1506 26.1728L21.8903 26.967C21.3287 27.8023 20.7944 28.665 20.3013 29.5551L19.2602 29.2539C18.9588 29.8016 18.6712 30.3631 18.4109 30.9245L19.2739 31.5955C18.8492 32.513 18.452 33.4442 18.1095 34.4028L17.041 34.2658C16.8218 34.8547 16.6301 35.4435 16.452 36.046L17.4109 36.5664C17.1369 37.5386 16.904 38.5246 16.6986 39.5242L15.6164 39.5653C15.5068 40.1816 15.4109 40.7978 15.3287 41.4277L16.3561 41.7974C16.2328 42.7971 16.1506 43.7967 16.1232 44.8238L15.0684 45.0292C15.0273 45.6591 15.0273 46.289 15.0684 46.9189L16.1232 47.1243C16.1643 48.1377 16.2328 49.151 16.3561 50.1507L15.3287 50.5067C15.4109 51.1366 15.5068 51.7528 15.6164 52.3691L16.6986 52.4101C16.8903 53.4098 17.1369 54.3957 17.4109 55.368L16.452 55.8884C16.6301 56.4909 16.8218 57.0934 17.041 57.6823L18.1095 57.5453C18.452 58.5039 18.8492 59.4351 19.2739 60.3526L18.4109 61.0235C18.6849 61.585 18.9588 62.1464 19.2602 62.7079L20.3013 62.3929C20.7944 63.283 21.315 64.1457 21.8903 64.9811L21.1506 65.7616C21.5068 66.282 21.8766 66.7886 22.2602 67.2816L23.2465 66.816C23.8766 67.6103 24.5205 68.3908 25.2191 69.1303L24.6164 70.0204C25.041 70.4723 25.4931 70.9242 25.9451 71.3487L26.8355 70.7462C27.5753 71.4309 28.3424 72.0882 29.1506 72.7181L28.6849 73.704C29.1917 74.0875 29.6849 74.4572 30.2054 74.8132L30.9862 74.0738C31.8218 74.6352 32.6986 75.1693 33.589 75.6622L33.2876 76.7167C33.8355 77.0179 34.3972 77.3055 34.9588 77.5794L35.6301 76.7167C36.5479 77.1412 37.4794 77.5383 38.4383 77.8806L38.3013 78.9625C38.8903 79.1679 39.4931 79.3596 40.0958 79.5376L40.6164 78.579C41.589 78.8529 42.5616 79.0994 43.5753 79.2911L43.6164 80.3729C44.2328 80.4825 44.8492 80.5783 45.4794 80.6605L45.8492 79.6335C46.8492 79.7567 47.8492 79.8389 48.8629 79.8662L49.0684 80.9344C49.6986 80.9618 50.3287 80.9618 50.9588 80.9344L51.1643 79.8662C52.178 79.8252 53.1917 79.7567 54.178 79.6335L54.5479 80.6605C55.178 80.5783 55.7944 80.4825 56.4109 80.3729L56.452 79.2911C57.452 79.0994 58.4383 78.8666 59.4109 78.579L59.9314 79.5376C60.5342 79.3596 61.1369 79.1679 61.726 78.9625L61.589 77.8806C62.5479 77.5383 63.4794 77.1412 64.3972 76.7167L65.0684 77.5794C65.6301 77.3055 66.1917 77.0316 66.7397 76.7167L66.4383 75.6622C67.3287 75.1693 68.1917 74.6489 69.0273 74.0738L69.8218 74.8132C70.3424 74.4572 70.8492 74.0875 71.3424 73.704L70.8766 72.7181C71.6712 72.1019 72.4383 71.4445 73.178 70.7462L74.0821 71.3624C74.5479 70.9242 74.9862 70.486 75.4109 70.0341L74.8081 69.1303C75.4931 68.3908 76.1506 67.624 76.7808 66.816L77.7671 67.2816C78.1506 66.7886 78.5205 66.282 78.8766 65.7616L78.1369 64.9811C78.6986 64.1457 79.2328 63.283 79.726 62.3929L80.7808 62.7079C81.0821 62.1601 81.3698 61.5987 81.6301 61.0235L80.7671 60.3526C81.1917 59.4351 81.589 58.5039 81.9314 57.5453L82.9999 57.6823C83.2191 57.0934 83.4109 56.4909 83.589 55.8884L82.6301 55.368C82.904 54.4094 83.1369 53.4098 83.3424 52.4101L84.4246 52.3691C84.5342 51.7528 84.6301 51.1366 84.7123 50.5067L83.6849 50.1507C83.8081 49.151 83.8903 48.1377 83.9177 47.1243L84.9862 46.9189ZM49.9999 27.6654C73.9588 27.7749 73.9588 64.1731 49.9999 64.269C25.9314 63.8719 25.9451 28.0762 49.9999 27.6654Z" fill="#575757"/>
<path d="M49.9999 23.434C20.3561 23.9406 20.3698 68.021 49.9999 68.5277C79.6438 68.021 79.6575 23.9406 49.9999 23.434ZM49.9999 60.7633C30.5616 60.4347 30.5616 31.527 49.9999 31.1984C69.4383 31.527 69.4383 60.4347 49.9999 60.7633Z" fill="#3C3C3C"/>
<path d="M49.9999 20.4624C16.452 21.0649 16.452 70.9104 49.9999 71.513C83.5616 70.9104 83.5479 21.0512 49.9999 20.4624ZM49.9999 70.3216C18.0136 69.7465 18.0136 22.2152 49.9999 21.6538C81.9862 22.2289 81.9862 69.7465 49.9999 70.3216Z" fill="#3C3C3C"/>
<path d="M84.4794 70.5819V86.9597C84.4794 88.0826 83.5616 89.0001 82.4383 89.0001H17.5616C16.4383 89.0001 15.5205 88.0826 15.5205 86.9597V70.5819C15.5205 69.459 16.4383 68.5415 17.5616 68.5415H82.4383C83.5616 68.5415 84.4794 69.459 84.4794 70.5819Z" fill="#606060"/>
<path d="M17.7534 70.9517V72.321H19.7945V70.9517H17.7534ZM25.8082 70.9517V72.321H27.8492V70.9517H25.8082ZM33.8629 70.9517V72.321H35.904V70.9517H33.8629ZM41.9177 70.9517V72.321H43.9588V70.9517H41.9177ZM49.9862 70.9517V72.321H52.0273V70.9517H49.9862ZM58.041 70.9517V72.321H60.0821V70.9517H58.041ZM66.0958 70.9517V72.321H68.1369V70.9517H66.0958ZM74.1643 70.9517V72.321H76.2054V70.9517H74.1643ZM82.2191 70.9517V72.321H84.2602V70.9517H82.2191Z" fill="#3C3C3C"/>
<path d="M21.8766 75.717V77.0864H23.9177V75.717H21.8766ZM31.9999 75.717V77.0864H34.041V75.717H31.9999ZM42.1232 75.717V77.0864H44.1643V75.717H42.1232ZM52.2465 75.717V77.0864H54.2876V75.717H52.2465ZM62.3698 75.717V77.0864H64.4109V75.717H62.3698ZM72.4794 75.717V77.0864H74.5205V75.717H72.4794ZM82.6027 75.717V77.0864H84.4794V75.717H82.6027Z" fill="#3C3C3C"/>
<path d="M17.7534 80.4689V81.8383H19.7945V80.4689H17.7534ZM25.8082 80.4689V81.8383H27.8492V80.4689H25.8082ZM33.8629 80.4689V81.8383H35.904V80.4689H33.8629ZM41.9177 80.4689V81.8383H43.9588V80.4689H41.9177ZM49.9862 80.4689V81.8383H52.0273V80.4689H49.9862ZM58.041 80.4689V81.8383H60.0821V80.4689H58.041ZM66.0958 80.4689V81.8383H68.1369V80.4689H66.0958ZM74.1643 80.4689V81.8383H76.2054V80.4689H74.1643ZM82.2191 80.4689V81.8383H84.2602V80.4689H82.2191Z" fill="#3C3C3C"/>
<path d="M21.8766 85.2206V86.59H23.9177V85.2206H21.8766ZM31.9999 85.2206V86.59H34.041V85.2206H31.9999ZM42.1232 85.2206V86.59H44.1643V85.2206H42.1232ZM52.2465 85.2206V86.59H54.2876V85.2206H52.2465ZM62.3698 85.2206V86.59H64.4109V85.2206H62.3698ZM72.4794 85.2206V86.59H74.5205V85.2206H72.4794ZM82.6027 85.2206V86.59H84.4794V85.2206H82.6027Z" fill="#3C3C3C"/>
</svg>
