<svg width="100" height="100" viewBox="0 0 100 100" fill="none" xmlns="http://www.w3.org/2000/svg">
<path d="M13.1687 71.5608C8.748 75.9787 8.95282 83.2623 13.7832 87.4243C20.2522 93.3774 31.6027 88.3284 31.6368 79.6802C31.7905 76.2004 33.3266 72.9424 35.7845 70.4861L70.2287 36.0981C71.9697 34.3753 74.3763 33.4712 76.8171 33.6588C89.7721 34.9041 92.7079 17.8465 87.6556 13.5139L82.3644 23.1514C76.544 23.2026 74.8201 18.4264 74.8201 18.4264L79.1043 10C64.2547 11.0917 66.064 19.2793 65.6543 26.5288C65.2788 27.9616 64.5449 29.3092 63.4696 30.3838C60.9264 32.3454 27.7623 67.5011 25.0825 67.3305C21.0714 68.968 16.4118 67.8593 13.1687 71.5608ZM18.0162 76.4051C21.7713 72.7889 27.2502 78.2644 23.6147 82C19.8767 85.6162 14.3977 80.1407 18.0162 76.4051Z" fill="#BCBEC0"/>
<path d="M27.7393 70.3055L29.8635 72.4283L67.8933 34.4229L65.7691 32.3L27.7393 70.3055Z" fill="#D6D6D6"/>
<path d="M12.742 11.2111C11.752 11.0746 10.8986 11.9275 11.0352 12.9168C11.1717 13.9062 11.6155 14.8102 12.3153 15.5096L50.617 53.8038L53.6552 50.7676L15.3364 12.4904C14.6366 11.791 13.732 11.3305 12.742 11.2111Z" fill="#BCBEC0"/>
<path d="M56.6934 50.8358C57.2225 50.4264 57.7516 49.6759 57.1372 49.096L54.7646 46.725C54.4062 46.3667 53.8259 46.3667 53.4674 46.725L46.9814 53.2068C46.623 53.565 46.623 54.145 46.9814 54.5032L49.3539 56.8742C49.9513 57.4712 50.6853 56.9595 51.0949 56.4307C51.7606 63.2026 80.6063 97.5906 87.1948 86.9126C97.8626 80.3113 63.4866 51.5181 56.6934 50.8358Z" fill="#F6E362"/>
<path d="M73.7789 68.3369C85.0953 79.7313 80.026 84.7974 68.6242 73.4883C57.3078 62.1109 62.3772 57.0448 73.7789 68.3369Z" fill="#575757"/>
</svg>
