<svg width="100" height="100" viewBox="0 0 100 100" fill="none" xmlns="http://www.w3.org/2000/svg">
<path d="M0 65.958V54.276H33.5308C37.2038 54.276 39.6919 57.226 38.981 60.884L37.5592 65.958H0Z" fill="#FF9400"/>
<path d="M26.3033 71.7399C24.763 77.5219 18.7204 80.9439 12.9147 79.2919C7.22748 77.7579 3.79146 71.7399 5.33175 65.9579C6.87203 60.1759 12.9147 56.7539 18.7204 58.4059C24.5261 59.9399 27.9621 65.9579 26.3033 71.7399Z" fill="#504E51"/>
<path d="M13.981 75.6339C10.1896 74.5719 7.93839 70.6779 9.00474 67.0199C10.0711 63.2439 13.981 61.0019 17.654 62.0639C21.4455 63.1259 23.6967 67.0199 22.6303 70.6779C21.6825 74.4539 17.7725 76.6959 13.981 75.6339Z" fill="#F0F0F0"/>
<path d="M15.2844 71.0319C14.0995 70.6779 13.3886 69.4979 13.7441 68.3179C14.0995 67.1379 15.2844 66.4299 16.4692 66.7839C17.654 67.1379 18.3649 68.3179 18.0095 69.4979C17.654 70.5599 16.4692 71.2679 15.2844 71.0319Z" fill="#504E51"/>
<path d="M38.2701 56.8719C37.0853 56.9899 36.019 58.0519 36.019 59.3499C36.019 60.7659 36.2559 61.8279 37.5592 61.8279H38.6256V61.592L38.7441 60.7659C39.3365 59.3499 38.981 58.0519 38.2701 56.8719Z" fill="#EA3E10"/>
<path d="M34.4787 52.27H0V54.276H34.4787V52.27Z" fill="#58595B"/>
<path d="M4.38389 26.9H0V52.388H4.38389V26.9Z" fill="#58595B"/>
<path d="M37.0853 52.624C36.8483 52.624 36.4929 52.388 36.4929 52.152L27.3697 23.006C27.2512 22.652 27.4881 22.298 27.8436 22.18C28.199 22.062 28.5545 22.298 28.673 22.652L37.6777 51.68C37.7962 52.034 37.5592 52.388 37.2038 52.506C37.2038 52.624 37.0853 52.624 37.0853 52.624Z" fill="#4A484B"/>
<path d="M2.48816 44.6C1.89574 44.6 1.30332 44.364 0.947875 43.892C0.118491 42.948 0.355458 41.768 1.18484 41.06L26.3033 21.472C27.1327 20.764 28.436 20.882 29.1469 21.826C29.7393 22.652 29.6209 23.832 28.7915 24.54L3.67299 44.246C3.31754 44.482 2.84361 44.6 2.48816 44.6Z" fill="#58595B"/>
<path d="M36.019 51.916C36.019 51.916 37.3223 39.054 47.2749 42.948C57.4644 46.842 58.2938 46.488 58.2938 46.488C58.2938 46.488 70.3791 41.06 82.9384 47.786C95.8531 54.63 100 59.586 99.763 59.232C99.763 59.232 99.5261 59.822 99.0521 59.586C98.3412 59.114 97.7488 58.288 97.6303 59.822C97.5118 62.3 100.829 67.02 99.5261 70.324C98.2227 73.628 94.4313 78.23 94.4313 78.23L36.019 51.916Z" fill="#F6E362"/>
<path d="M38.2701 45.308C39.455 45.78 42.0616 47.078 42.5355 46.842C45.2607 45.662 44.1943 44.6 44.1943 44.6L40.5213 42.948C39.5735 43.656 38.8626 44.482 38.2701 45.308Z" fill="white"/>
<path d="M59.7156 48.14C61.2559 46.016 70.0237 45.072 75.4739 46.842C81.0427 48.966 84.1232 50.618 84.1232 50.618L80.8057 57.58C80.8057 57.58 62.2038 49.202 59.7156 48.14Z" fill="#504E51"/>
<path d="M59.5971 48.494C59.4787 48.494 59.4787 48.376 59.3602 48.258C59.3602 48.14 59.3602 48.022 59.3602 48.022C61.0189 45.662 70.1422 44.954 75.5924 46.606C77.7251 47.432 79.7393 48.258 81.6351 49.084C83.4123 49.91 84.3602 50.382 84.3602 50.382C84.4786 50.5 84.5971 50.618 84.4787 50.854L81.1611 57.816C81.0426 57.934 80.9241 58.052 80.6872 57.934C80.6872 57.934 62.0853 49.556 59.5971 48.494ZM81.2796 49.556C79.5023 48.73 77.4881 47.904 75.3554 47.078C70.1422 45.426 62.2038 46.252 60.1896 47.904C63.5071 49.438 78.199 56.046 80.5687 56.99L83.6493 50.618C83.2938 50.5 82.4644 50.146 81.2796 49.556Z" fill="#212121"/>
<path d="M85.0711 50.972C85.0711 50.972 94.0758 55.928 95.3792 58.17C95.3792 58.17 93.6019 62.772 95.0237 64.07L81.872 58.17L85.0711 50.972Z" fill="#504E51"/>
<path d="M94.9052 64.306L81.7536 58.406C81.6351 58.288 81.5166 58.17 81.6351 57.934L84.8341 50.854C84.8341 50.736 84.9526 50.736 85.0711 50.618C85.1896 50.618 85.3081 50.618 85.3081 50.618C85.6635 50.854 94.4313 55.574 95.7346 57.934C95.7346 58.052 95.7346 58.17 95.7346 58.17C95.0237 59.822 94.3128 62.772 95.2607 63.598C95.3792 63.716 95.4976 63.834 95.3792 64.07C95.2607 64.306 95.0237 64.424 94.9052 64.306ZM82.346 57.934L94.3128 63.362C93.8389 61.71 94.7867 58.996 95.1422 58.288C93.8389 56.282 86.9668 52.388 85.4265 51.562L82.346 57.934Z" fill="#303030"/>
<path d="M76.3033 56.8721C75.5924 56.5181 74.8815 56.6361 74.6446 56.9901C74.5261 57.3441 74.8815 57.9341 75.5924 58.2881C76.3033 58.6421 77.0142 58.5241 77.2512 58.1701C77.4882 57.8161 77.0142 57.2261 76.3033 56.8721Z" fill="#DFDFDF"/>
<path d="M92.0616 63.952C91.3507 63.598 90.6398 63.716 90.4028 64.07C90.2843 64.424 90.6398 65.014 91.3507 65.368C92.0616 65.722 92.7725 65.604 93.0095 65.25C93.2464 64.896 92.7725 64.306 92.0616 63.952Z" fill="#DFDFDF"/>
<path d="M93.7204 65.604C93.6019 65.722 93.4834 65.84 93.2464 65.722L89.6919 64.07C89.5735 63.952 89.455 63.834 89.5735 63.598C89.6919 63.48 89.8104 63.362 90.0474 63.48L93.7204 64.896C93.8389 65.014 94.0758 65.25 93.7204 65.604Z" fill="#212121"/>
<path d="M100 68.4361C100 69.1441 99.8815 69.8521 99.763 70.5601C98.8152 72.2121 97.7488 73.8641 96.6825 75.5161C96.564 75.1621 96.327 74.9261 96.2085 74.5721C97.1564 72.4481 98.1043 70.2061 98.8152 67.9641C99.1706 67.9641 99.6446 67.8461 100 67.8461C100 68.0821 100 68.2001 100 68.4361Z" fill="#992520"/>
<path d="M97.7488 59.822L97.3934 60.058C97.3934 60.058 98.1043 65.722 99.763 67.02C99.2891 64.424 97.7488 61.592 97.7488 59.822Z" fill="#4A484B"/>
<path d="M81.7536 58.406L79.8578 57.58L83.4123 49.91L85.1896 50.736L81.7536 58.406Z" fill="#303030"/>
<path d="M36.7299 48.73C36.1374 50.5 36.019 51.916 36.019 51.916L41.9431 54.512L42.5355 53.214L39.455 51.798L40.0474 50.618L36.7299 48.73Z" fill="#504E51"/>
<path d="M55.6872 60.7661L76.7772 70.3241L77.1327 69.7341L56.1611 60.2941L55.6872 60.7661Z" fill="url(#paint0_linear_519_463)"/>
<path d="M86.6114 66.312C83.7678 65.014 80.5687 65.604 78.3175 67.492C78.3175 67.492 77.0142 68.436 76.3033 70.206C77.1327 70.56 77.6066 70.796 77.6066 70.796L90.4028 76.578C92.2986 72.684 90.5213 68.082 86.6114 66.312Z" fill="#504E51"/>
<path d="M89.5735 76.1061C88.0332 79.4101 84.1232 80.9441 80.8057 79.4101C77.4881 77.8761 75.9479 73.9821 77.4881 70.6781C79.0284 67.3741 82.9384 65.8401 86.2559 67.3741C89.5735 68.7901 90.9953 72.8021 89.5735 76.1061Z" fill="#504E51"/>
<path d="M81.872 76.9321C79.8578 76.1061 79.0284 73.7461 79.9763 71.8581C80.8057 69.9701 83.1753 69.0261 85.0711 69.9701C86.9668 70.7961 87.9147 73.1561 86.9668 75.0441C86.1374 76.9321 83.7678 77.7581 81.872 76.9321Z" fill="#E3E3E3"/>
<path d="M82.9384 74.454C82.346 74.218 82.109 73.51 82.346 73.038C82.5829 72.448 83.2938 72.212 83.7678 72.448C84.3602 72.684 84.5971 73.392 84.3602 73.864C84.2417 74.454 83.5308 74.69 82.9384 74.454Z" fill="#1C2426"/>
<path d="M52.0142 50.7361C49.1706 49.4381 45.9716 50.0281 43.7204 51.9161C43.7204 51.9161 42.417 52.8601 41.7061 54.6301C42.5355 54.9841 43.0095 55.2201 43.0095 55.2201L55.8057 61.0021C57.5829 57.1081 55.9242 52.5061 52.0142 50.7361Z" fill="#504E51"/>
<path d="M54.8578 60.53C53.3175 63.834 49.4076 65.368 46.09 63.834C42.7725 62.3 41.2322 58.406 42.7725 55.102C44.3128 51.798 48.2227 50.264 51.5403 51.798C54.8578 53.214 56.3981 57.108 54.8578 60.53Z" fill="#504E51"/>
<path d="M47.1564 61.2381C45.2606 60.4121 44.3128 58.0521 45.2606 56.1641C46.09 54.1581 48.4597 53.3321 50.3554 54.2761C52.2512 55.1021 53.199 57.4621 52.2512 59.3501C51.4218 61.3561 49.1706 62.1821 47.1564 61.2381Z" fill="#E3E3E3"/>
<path d="M48.3412 58.76C47.7488 58.524 47.5118 57.816 47.7488 57.344C47.9858 56.754 48.6967 56.518 49.1706 56.754C49.763 56.99 50 57.698 49.763 58.17C49.526 58.76 48.9336 58.996 48.3412 58.76Z" fill="#1C2426"/>
<path d="M95.7346 76.814L93.4834 75.162L90.6398 76.46L94.5498 78.23C94.5498 78.23 95.0237 77.64 95.7346 76.814Z" fill="#504E51"/>
<path d="M60.9005 47.432L59.8341 47.904L60.0711 48.494L61.1374 48.612L60.9005 47.432Z" fill="url(#paint1_linear_519_463)"/>
<path d="M63.2701 49.084L63.981 46.724C64.0995 46.252 63.7441 45.898 63.1516 45.78C61.8483 45.662 60.308 47.904 60.308 48.022C60.308 48.73 61.1374 49.084 62.0853 49.438C62.5592 49.674 63.1516 49.556 63.2701 49.084Z" fill="#A6A6A6"/>
<path d="M78.0806 58.5241C77.9621 58.6421 77.8436 58.7601 77.6066 58.6421L74.0521 56.9901C73.9337 56.8721 73.8152 56.7541 73.9337 56.5181C74.0521 56.4001 74.1706 56.2821 74.4076 56.4001L78.0806 57.8161C78.0806 57.9341 78.3175 58.1701 78.0806 58.5241Z" fill="#212121"/>
<defs>
<linearGradient id="paint0_linear_519_463" x1="66.2793" y1="65.5309" x2="66.5413" y2="64.9495" gradientUnits="userSpaceOnUse">
<stop stop-color="#5F5A5E"/>
<stop offset="0.2754" stop-color="#262529"/>
<stop offset="0.4762" stop-color="#29282C"/>
<stop offset="0.6286" stop-color="#333135"/>
<stop offset="0.7647" stop-color="#434144"/>
<stop offset="0.8093" stop-color="#4A484B"/>
</linearGradient>
<linearGradient id="paint1_linear_519_463" x1="60.8436" y1="47.4224" x2="60.3019" y2="48.6242" gradientUnits="userSpaceOnUse">
<stop stop-color="#5F5A5E"/>
<stop offset="0.2754"/>
<stop offset="0.7541"/>
<stop offset="0.8093"/>
</linearGradient>
</defs>
</svg>
