<svg width="100" height="100" viewBox="0 0 100 100" fill="none" xmlns="http://www.w3.org/2000/svg">
<path d="M78.3509 22.2965H21.5251C20.186 22.2965 19.0949 21.2024 19.0949 19.8596V19.4369C19.0949 18.0941 20.1736 17 21.5251 17H78.3633C79.7024 17 80.7935 18.0941 80.7935 19.4369V19.8596C80.7811 21.2024 79.7024 22.2965 78.3509 22.2965Z" fill="#F6E362"/>
<path d="M27.7247 69.455H9.86981C5.85245 69.455 2.59145 66.1851 2.59145 62.1568V29.5449H9.06386V62.1568C9.06386 62.592 9.43583 62.965 9.86981 62.965H27.7247V69.455Z" fill="#F6E362"/>
<path d="M11.3205 27.7297H0V30.3282H11.3205V27.7297Z" fill="#F05161"/>
<path d="M88.2207 77.2257H21.9963C18.7105 77.2257 16.0322 74.5526 16.0322 71.2454V29.4206C16.0322 26.1258 18.6981 23.4403 21.9963 23.4403H75.9702C78.4997 23.4403 80.9299 24.4723 82.6906 26.2875L94.1847 38.1859V71.2454C94.1723 74.5526 91.5065 77.2257 88.2207 77.2257Z" fill="#BCBEC0"/>
<path opacity="0.5" d="M82.9014 27.108H60.8927V33.5981H82.9014V27.108Z" fill="#2F2E30"/>
<path opacity="0.5" d="M68.1091 35.3636H55.5735V44.6138H68.1091V35.3636Z" fill="#414042"/>
<path d="M96.4042 73.7693H48.2579C46.4476 73.7693 44.9845 72.3022 44.9845 70.487V63.2634C44.9845 61.4482 46.4476 59.9811 48.2579 59.9811H96.3918C98.2021 59.9811 99.6652 61.4482 99.6652 63.2634V70.487C99.6776 72.3022 98.2145 73.7693 96.4042 73.7693Z" fill="#A7A9AC"/>
<path d="M88.2827 49.5497H67.2536C64.1909 49.5497 61.6987 47.0507 61.6987 43.9797V41.8163C61.6987 38.7454 64.1909 36.2463 67.2536 36.2463H88.2827C91.3453 36.2463 93.8376 38.7454 93.8376 41.8163V43.9797C93.8376 47.0631 91.3453 49.5497 88.2827 49.5497Z" fill="#A7A9AC"/>
<path d="M76.6026 36.8182H74.0979V49.5497H76.6026V36.8182Z" fill="#7E8082"/>
<path d="M81.8599 36.8182H79.3552V49.5497H81.8599V36.8182Z" fill="#7E8082"/>
<path d="M92.3869 47.4361V38.3599C91.8289 37.7134 91.1345 37.1788 90.3534 36.8182H89.8822V49.1891C90.8494 48.8286 91.7173 48.2193 92.3869 47.4361Z" fill="#7E8082"/>
<path d="M87.1172 36.8182H84.6125V49.5497H87.1172V36.8182Z" fill="#7E8082"/>
<path d="M71.3453 36.8182H68.8407V49.5497H71.3453V36.8182Z" fill="#7E8082"/>
<path d="M63.5834 47.8961C64.2777 48.555 65.1333 49.0524 66.088 49.3259V36.8182H65.1829C64.5877 37.0918 64.0546 37.4648 63.5834 37.9123V47.8961Z" fill="#7E8082"/>
<path d="M95.3503 51.6633H56.6274V60.0183H95.3503V51.6633Z" fill="#626466"/>
<path d="M96.3918 54.1749H55.4495C54.9411 54.1749 54.5195 53.7521 54.5195 53.2424V49.0276C54.5195 48.5178 54.9411 48.0951 55.4495 48.0951H96.3794C96.8878 48.0951 97.3094 48.5178 97.3094 49.0276V53.2424C97.3218 53.7646 96.9002 54.1749 96.3918 54.1749Z" fill="#7C7F81"/>
<path d="M44.9845 69.9896V70.1885C44.9845 72.1654 46.584 73.7568 48.5431 73.7568H96.1066C98.0781 73.7568 99.6652 72.153 99.6652 70.1885V69.9896H44.9845Z" fill="#898B8E"/>
<path d="M62.0459 65.0413C62.0459 66.7944 61.4879 68.1993 60.7935 68.1993C60.0992 68.1993 59.5412 66.7819 59.5412 65.0413C59.5412 63.2882 60.0992 61.8833 60.7935 61.8833C61.4879 61.8833 62.0459 63.3007 62.0459 65.0413Z" fill="#BCBEC0"/>
<path d="M66.4104 65.0413C66.4104 66.7944 65.8524 68.1993 65.1581 68.1993C64.4637 68.1993 63.9058 66.7819 63.9058 65.0413C63.9058 63.2882 64.4637 61.8833 65.1581 61.8833C65.8524 61.8833 66.4104 63.3007 66.4104 65.0413Z" fill="#BCBEC0"/>
<path d="M70.7874 65.0413C70.7874 66.7944 70.2294 68.1993 69.535 68.1993C68.8407 68.1993 68.2827 66.7819 68.2827 65.0413C68.2827 63.2882 68.8407 61.8833 69.535 61.8833C70.217 61.8833 70.7874 63.3007 70.7874 65.0413Z" fill="#BCBEC0"/>
<path d="M75.1519 65.0413C75.1519 66.7944 74.5939 68.1993 73.8996 68.1993C73.2052 68.1993 72.6472 66.7819 72.6472 65.0413C72.6472 63.2882 73.2052 61.8833 73.8996 61.8833C74.5939 61.8833 75.1519 63.3007 75.1519 65.0413Z" fill="#BCBEC0"/>
<path d="M79.5164 65.0413C79.5164 66.7944 78.9585 68.1993 78.2641 68.1993C77.5697 68.1993 77.0118 66.7819 77.0118 65.0413C77.0118 63.2882 77.5697 61.8833 78.2641 61.8833C78.9585 61.8833 79.5164 63.3007 79.5164 65.0413Z" fill="#BCBEC0"/>
<path d="M83.8934 65.0413C83.8934 66.7944 83.3354 68.1993 82.641 68.1993C81.9467 68.1993 81.3887 66.7819 81.3887 65.0413C81.3887 63.2882 81.9467 61.8833 82.641 61.8833C83.323 61.8833 83.8934 63.3007 83.8934 65.0413Z" fill="#BCBEC0"/>
<path d="M88.2579 65.0413C88.2579 66.7944 87.6999 68.1993 87.0056 68.1993C86.3112 68.1993 85.7533 66.7819 85.7533 65.0413C85.7533 63.2882 86.3112 61.8833 87.0056 61.8833C87.6999 61.8833 88.2579 63.3007 88.2579 65.0413Z" fill="#BCBEC0"/>
<path d="M92.6224 65.0413C92.6224 66.7944 92.0645 68.1993 91.3701 68.1993C90.6758 68.1993 90.1178 66.7819 90.1178 65.0413C90.1178 63.2882 90.6758 61.8833 91.3701 61.8833C92.0645 61.8833 92.6224 63.3007 92.6224 65.0413Z" fill="#BCBEC0"/>
<path d="M96.987 65.0413C96.987 66.7944 96.429 68.1993 95.7347 68.1993C95.0403 68.1993 94.4823 66.7944 94.4823 65.0413C94.4823 63.2882 95.0403 61.8833 95.7347 61.8833C96.429 61.8833 96.987 63.3007 96.987 65.0413Z" fill="#BCBEC0"/>
<path d="M69.2994 58.1534H63.5338V60.0433H69.2994V58.1534Z" fill="#BCBEC0"/>
<path d="M68.5431 58.1782H64.5009V52.745C64.5009 50.7308 66.1376 49.0897 68.1463 49.0897H95.8711V40.5482H94.6559V36.495H96.2678C98.2765 36.495 99.9132 38.1362 99.9132 40.1503V49.5C99.9132 51.5141 98.2765 53.1553 96.2678 53.1553H68.5431V58.1782Z" fill="#414042"/>
<path d="M93.6392 41.8785H63.3478C61.7235 41.8785 60.4092 40.8217 60.4092 39.5163V33.5235C60.4092 32.2181 61.7235 31.1613 63.3478 31.1613H90.7502C91.9653 31.1613 93.0564 31.758 93.4904 32.6657L96.3918 38.6584C97.1358 40.2125 95.7099 41.8785 93.6392 41.8785Z" fill="#939598"/>
<path d="M64.7117 32.6408C64.7117 32.9268 64.4761 33.163 64.191 33.163C63.9058 33.163 63.6702 32.9268 63.6702 32.6408C63.6702 32.3549 63.9058 32.1187 64.191 32.1187C64.4761 32.1187 64.7117 32.3549 64.7117 32.6408Z" fill="#7E8082"/>
<path d="M91.2089 32.6408C91.2089 32.9268 90.9733 33.163 90.6882 33.163C90.403 33.163 90.1674 32.9268 90.1674 32.6408C90.1674 32.3549 90.403 32.1187 90.6882 32.1187C90.9733 32.1187 91.2089 32.3549 91.2089 32.6408Z" fill="#7E8082"/>
<path d="M64.7117 40.3866C64.7117 40.6725 64.4761 40.9088 64.191 40.9088C63.9058 40.9088 63.6702 40.6725 63.6702 40.3866C63.6702 40.1006 63.9058 39.8644 64.191 39.8644C64.4761 39.8644 64.7117 40.1006 64.7117 40.3866Z" fill="#7E8082"/>
<path d="M92.5481 36.6566H60.5084V37.5518H92.5481V36.6566Z" fill="#BCBEC0"/>
<path d="M94.9287 40.3866C94.9287 40.6725 94.6931 40.9088 94.4079 40.9088C94.1228 40.9088 93.8872 40.6725 93.8872 40.3866C93.8872 40.1006 94.1228 39.8644 94.4079 39.8644C94.6931 39.8644 94.9287 40.1006 94.9287 40.3866Z" fill="#7E8082"/>
<path d="M95.3007 60.0183H58.3261V60.8265H95.3007V60.0183Z" fill="#58595B"/>
<path d="M68.5927 58.1907H67.7867V59.981H68.5927V58.1907Z" fill="white"/>
<path d="M77.545 58.1534H71.7793V60.0433H77.545V58.1534Z" fill="#BCBEC0"/>
<path d="M76.8506 58.1907H76.0446V59.981H76.8506V58.1907Z" fill="white"/>
<path d="M76.7638 58.1161H72.7216V56.8355C72.7216 55.0079 74.3583 53.5283 76.367 53.5283H98.0905V57.5815H76.7638V58.1161Z" fill="#414042"/>
<path d="M100 55.5549C100 56.6739 99.0949 57.5815 97.9789 57.5815C96.863 57.5815 95.9578 56.6739 95.9578 55.5549C95.9578 54.4359 96.863 53.5283 97.9789 53.5283C99.0949 53.5283 100 54.4359 100 55.5549Z" fill="#414042"/>
<path opacity="0.5" d="M42.9262 23.2787H27.5015V77.1387H42.9262V23.2787Z" fill="#414042"/>
<path d="M85.4805 27.2697H15.5859C14.2467 27.2697 13.1556 26.1756 13.1556 24.8328V22.3462C13.1556 21.0034 14.2467 19.9093 15.5859 19.9093H85.4681C86.8072 19.9093 87.8983 21.0034 87.8983 22.3462V24.8328C87.9107 26.188 86.8196 27.2697 85.4805 27.2697Z" fill="#5A699E"/>
<path opacity="0.1" d="M13.1556 23.8134V24.6215C13.1556 26.0886 14.3335 27.2697 15.7967 27.2697H85.2573C86.7204 27.2697 87.8983 26.0886 87.8983 24.6215V23.8134H13.1556Z" fill="#231F20"/>
<path d="M70.9733 27.4313H64.4513V31.2109H70.9733V27.4313Z" fill="#A7A9AC"/>
<path d="M65.2528 31.2275H66.4928V27.4479H65.2528V31.2275Z" fill="#BCBEC0"/>
<path d="M71.2461 26.5112H64.0174V28.0778H71.2461V26.5112Z" fill="#EFB742"/>
<path d="M71.2461 28.0902H64.0174V28.7367H71.2461V28.0902Z" fill="#D0A139"/>
<path d="M79.4296 27.4313H72.9076V31.2109H79.4296V27.4313Z" fill="#A7A9AC"/>
<path d="M73.7181 31.2275H74.9581V27.4479H73.7181V31.2275Z" fill="#BCBEC0"/>
<path d="M79.7148 26.5112H72.4861V28.0778H79.7148V26.5112Z" fill="#EFB742"/>
<path d="M79.7148 28.0902H72.486V28.7367H79.7148V28.0902Z" fill="#D0A139"/>
<path d="M83.013 27.4313H80.7688V31.2109H83.013V27.4313Z" fill="#A7A9AC"/>
<path d="M81.0515 31.2275H81.4731V27.4479H81.0515V31.2275Z" fill="#BCBEC0"/>
<path d="M83.0998 26.5112H80.62V28.0778H83.0998V26.5112Z" fill="#EFB742"/>
<path d="M83.0998 28.0902H80.62V28.7367H83.0998V28.0902Z" fill="#D0A139"/>
<path d="M86.088 27.4313H83.8438V31.2109H86.088V27.4313Z" fill="#A7A9AC"/>
<path d="M84.1244 31.2275H84.546V27.4479H84.1244V31.2275Z" fill="#BCBEC0"/>
<path d="M86.1748 26.5112H83.695V28.0778H86.1748V26.5112Z" fill="#EFB742"/>
<path d="M86.1748 28.0902H83.695V28.7367H86.1748V28.0902Z" fill="#D0A139"/>
<path d="M60.8803 27.9784H42.9262V28.8984H60.8803V27.9784Z" fill="#2F2E30"/>
<path d="M56.615 71.979H14.2467C13.2548 71.979 12.4613 71.1833 12.4613 70.1886V30.9748C12.4613 29.9802 13.2548 29.1844 14.2467 29.1844H56.6274C57.6193 29.1844 58.4129 29.9802 58.4129 30.9748V70.2011C58.4005 71.1833 57.6069 71.979 56.615 71.979Z" fill="#58595B"/>
<path d="M55.1023 70.5741H15.7595C14.7675 70.5741 13.974 69.7783 13.974 68.7837V32.3797C13.974 31.3851 14.7675 30.5894 15.7595 30.5894H55.1023C56.0942 30.5894 56.8878 31.3851 56.8878 32.3797V68.7837C56.8878 69.7659 56.0942 70.5741 55.1023 70.5741Z" fill="#A7A9AC"/>
<path opacity="0.5" d="M32.8456 43.2213H21.6739C19.6156 43.2213 17.9541 41.5553 17.9541 39.4914V38.8449C17.9541 36.781 19.6156 35.115 21.6739 35.115H32.8456C34.9039 35.115 36.5654 36.781 36.5654 38.8449V39.4914C36.5654 41.5553 34.9039 43.2213 32.8456 43.2213Z" fill="#414042"/>
<path d="M33.2548 43.557H22.0831C20.0248 43.557 18.3633 41.891 18.3633 39.8271V39.1806C18.3633 37.1167 20.0248 35.4507 22.0831 35.4507H33.2548C35.3131 35.4507 36.9746 37.1167 36.9746 39.1806V39.8271C36.9746 41.8786 35.3007 43.557 33.2548 43.557Z" fill="white"/>
<path opacity="0.5" d="M56.7886 44.0419H14.2343V62.3682H56.7886V44.0419Z" fill="#414042"/>
<path d="M31.4569 54.0132C31.4569 58.0167 28.2207 61.2617 24.2281 61.2617C20.2356 61.2617 16.9994 58.0167 16.9994 54.0132C16.9994 50.0098 20.2356 46.7648 24.2281 46.7648C28.2207 46.7648 31.4569 50.0222 31.4569 54.0132Z" fill="#414042"/>
<path opacity="0.5" d="M49.166 43.9542C51.042 38.6544 48.2781 32.8331 42.9927 30.952C37.7073 29.0708 31.9019 31.8422 30.0258 37.142C28.1498 42.4418 30.9136 48.2631 36.199 50.1443C41.4844 52.0254 47.2899 49.254 49.166 43.9542Z" fill="#414042"/>
<path opacity="0.5" d="M58.6485 71.9044V77.3004H53.3912L58.6485 71.9044Z" fill="#231F20"/>
<path d="M52.2133 78.1707L52.0645 78.0339C51.5809 77.5863 51.5437 76.8403 51.9901 76.343L56.5034 71.3574C56.9498 70.8725 57.6937 70.8352 58.1897 71.2828L58.3385 71.4195C58.8221 71.8671 58.8593 72.6131 58.4129 73.1104L53.8996 78.0961C53.4532 78.581 52.6968 78.6183 52.2133 78.1707Z" fill="#D0A139"/>
<path opacity="0.5" d="M63.3974 71.9044V77.3004H58.1401L63.3974 71.9044Z" fill="#231F20"/>
<path d="M56.9622 78.1707L56.8134 78.0339C56.3298 77.5863 56.2926 76.8403 56.739 76.343L61.2523 71.3574C61.6987 70.8725 62.4427 70.8352 62.9386 71.2828L63.0874 71.4195C63.571 71.8671 63.6082 72.6131 63.1618 73.1104L58.6485 78.0836C58.2021 78.581 57.4457 78.6183 56.9622 78.1707Z" fill="#D0A139"/>
<path opacity="0.5" d="M68.1587 71.9044V77.3004H62.889L68.1587 71.9044Z" fill="#231F20"/>
<path d="M61.7111 78.1707L61.5623 78.0339C61.0787 77.5863 61.0415 76.8403 61.4879 76.343L66.0012 71.3574C66.4476 70.8725 67.1916 70.8352 67.6875 71.2828L67.8363 71.4195C68.3199 71.8671 68.3571 72.6131 67.9107 73.1104L63.3974 78.0961C62.951 78.581 62.1947 78.6183 61.7111 78.1707Z" fill="#D0A139"/>
<path opacity="0.5" d="M72.9076 71.9044V77.3004H67.6503L72.9076 71.9044Z" fill="#231F20"/>
<path d="M66.46 78.1707L66.3112 78.0339C65.8276 77.5863 65.7904 76.8403 66.2368 76.343L70.7501 71.3574C71.1965 70.8725 71.9405 70.8352 72.4364 71.2828L72.5852 71.4195C73.0688 71.8671 73.106 72.6131 72.6596 73.1104L68.1463 78.0961C67.6999 78.581 66.956 78.6183 66.46 78.1707Z" fill="#D0A139"/>
<path opacity="0.5" d="M77.6565 71.9044V77.3004H72.3993L77.6565 71.9044Z" fill="#231F20"/>
<path d="M71.2213 78.1707L71.0725 78.0339C70.589 77.5863 70.5518 76.8403 70.9981 76.343L75.5115 71.3574C75.9578 70.8725 76.7018 70.8352 77.1978 71.2828L77.3466 71.4195C77.8301 71.8671 77.8673 72.6131 77.421 73.1104L72.9076 78.0961C72.4612 78.581 71.7049 78.6183 71.2213 78.1707Z" fill="#D0A139"/>
<path opacity="0.5" d="M82.4055 71.9044V77.3004H77.1482L82.4055 71.9044Z" fill="#231F20"/>
<path d="M75.9702 78.1707L75.8215 78.0339C75.3379 77.5863 75.3007 76.8403 75.7471 76.343L80.2604 71.3574C80.7068 70.8725 81.4507 70.8352 81.9467 71.2828L82.0955 71.4195C82.579 71.8671 82.6162 72.6131 82.1699 73.1104L77.6565 78.0961C77.2102 78.581 76.4538 78.6183 75.9702 78.1707Z" fill="#D0A139"/>
<path opacity="0.5" d="M87.1668 71.9044V77.3004H81.9095L87.1668 71.9044Z" fill="#231F20"/>
<path d="M80.7192 78.1707L80.5704 78.0339C80.0868 77.5863 80.0496 76.8403 80.496 76.343L85.0093 71.3574C85.4557 70.8725 86.1996 70.8352 86.6956 71.2828L86.8444 71.4195C87.328 71.8671 87.3652 72.6131 86.9188 73.1104L82.4054 78.0961C81.9591 78.581 81.2151 78.6183 80.7192 78.1707Z" fill="#D0A139"/>
<path d="M39.4514 49.1596C44.1136 46.2491 45.5401 40.1 42.6375 35.4251C39.735 30.7502 33.6026 29.3198 28.9404 32.2303C24.2782 35.1407 22.8517 41.2899 25.7543 45.9648C28.6568 50.6397 34.7892 52.07 39.4514 49.1596Z" fill="#58595B"/>
<path d="M41.4631 40.6725C41.4631 44.6138 38.2765 47.7967 34.3583 47.7967C30.4278 47.7967 27.2536 44.6014 27.2536 40.6725C27.2536 36.7312 30.4402 33.5484 34.3583 33.5484C38.2889 33.5359 41.4631 36.7312 41.4631 40.6725Z" fill="#E3DEDF"/>
<path d="M35.2759 81.9502C32.92 81.714 30.6014 81.254 28.5059 80.1599C25.2325 78.4441 15.1891 73.7569 15.1891 73.7569C12.4117 72.6006 11.0601 70.8973 10.9237 68.3485C10.8493 67.0057 11.6057 65.7748 11.6057 65.7748C11.9405 65.1905 12.3745 64.6932 12.8952 64.2704C12.8952 64.2704 15.7471 62.3682 18.4129 60.6524C23.9306 57.109 23.9926 57.1339 24.3025 57.1339C26.0012 57.1339 27.3032 55.7289 27.3032 54.0256V53.9261L27.328 53.8267C28.5803 48.8659 30.4526 41.4185 30.6262 40.6103C30.6634 39.0686 31.5685 37.7259 33.1556 37.2783C34.7427 36.8307 54.2343 37.2907 54.2343 37.2907L54.2467 37.3031C54.3831 37.3031 54.5071 37.2907 54.6311 37.2907C61.2771 37.2907 66.6832 42.7115 66.6832 49.3756C66.6832 52.9066 65.3937 56.2262 62.9758 58.7999C59.2312 62.766 55.3131 67.9258 47.8859 74.8634C43.4346 79.0285 40.6448 82.4849 35.2759 81.9502ZM16.4414 72.2525L29.2746 78.7425C31.0973 79.7869 33.168 80.3339 35.2635 80.3339C39.5164 80.3339 43.5214 78.0463 45.6913 74.3785L45.8524 74.1174L46.026 74.0552L61.3515 57.3825L61.3887 57.3452C63.7198 55.3559 65.0589 52.4466 65.0589 49.3756C65.0589 43.6067 60.372 38.907 54.6187 38.907C54.3707 38.907 54.098 38.9194 53.788 38.9443L53.2176 38.994L53.1804 38.8946L34.6559 38.7951L34.5815 38.7827C34.3335 38.7329 34.098 38.7329 33.8252 38.7827L33.7508 38.7951C32.8704 38.994 32.2381 39.7898 32.2381 40.6974C32.2381 40.8341 32.2381 40.9087 28.9151 54.1251C28.0347 56.8603 27.452 57.3204 24.5629 58.9615C23.5586 59.5707 17.8549 62.9152 14.0732 65.3645L13.9988 65.4516L13.9368 65.5013C13.54 65.7997 13.2052 66.1851 12.9696 66.6203L12.92 66.7073C12.6596 67.2171 12.5232 67.7641 12.5232 68.336C12.5232 70.201 13.974 71.7551 15.8214 71.8919L16.2554 71.9292L16.4414 72.2525Z" fill="#3A3C3D"/>
<path d="M28.1091 54.0133C28.1091 56.1642 26.3732 57.9048 24.2281 57.9048C22.0831 57.9048 20.3472 56.1642 20.3472 54.0133C20.3472 51.8623 22.0831 50.1217 24.2281 50.1217C26.3732 50.1217 28.1091 51.8623 28.1091 54.0133Z" fill="#E3DEDF"/>
<path d="M27.0056 54.0133C27.0056 55.555 25.7657 56.7983 24.2281 56.7983C22.6906 56.7983 21.4507 55.555 21.4507 54.0133C21.4507 52.4716 22.6906 51.2283 24.2281 51.2283C25.7657 51.2407 27.0056 52.484 27.0056 54.0133Z" fill="#A7A9AC"/>
<path d="M35.2759 81.1421C42.4251 81.1421 48.2207 75.3307 48.2207 68.162C48.2207 60.9933 42.4251 55.1819 35.2759 55.1819C28.1267 55.1819 22.3311 60.9933 22.3311 68.162C22.3311 75.3307 28.1267 81.1421 35.2759 81.1421Z" fill="#E3DEDF"/>
<path d="M35.2759 77.4371C40.3844 77.4371 44.5257 73.2845 44.5257 68.162C44.5257 63.0395 40.3844 58.887 35.2759 58.887C30.1673 58.887 26.026 63.0395 26.026 68.162C26.026 73.2845 30.1673 77.4371 35.2759 77.4371Z" fill="#A7A9AC"/>
<path opacity="0.1" d="M26.2988 68.4355C26.2988 63.3131 30.4402 59.1605 35.5487 59.1605C38.0285 59.1605 40.2852 60.1427 41.9467 61.7341C40.2604 59.9686 37.8921 58.8745 35.2635 58.8745C30.155 58.8745 26.0136 63.0272 26.0136 68.1496C26.0136 70.7854 27.1048 73.1601 28.8655 74.851C27.2784 73.185 26.2988 70.9346 26.2988 68.4355Z" fill="#231F20"/>
<path opacity="0.1" d="M39.1817 68.3236C39.1817 70.3129 37.5821 71.9167 35.5983 71.9167C33.6144 71.9167 32.0149 70.3129 32.0149 68.3236C32.0149 66.3343 33.6144 64.7304 35.5983 64.7304C37.5697 64.718 39.1817 66.3343 39.1817 68.3236Z" fill="#231F20"/>
<path d="M38.8593 68.162C38.8593 70.1513 37.2474 71.7552 35.2759 71.7552C33.3044 71.7552 31.6925 70.1389 31.6925 68.162C31.6925 66.1727 33.292 64.5688 35.2759 64.5688C37.2598 64.5688 38.8593 66.1727 38.8593 68.162Z" fill="#58595B"/>
<path d="M37.9417 68.162C37.9417 69.6415 36.7514 70.8351 35.2759 70.8351C33.8004 70.8351 32.61 69.6415 32.61 68.162C32.61 66.6824 33.8004 65.4889 35.2759 65.4889C36.739 65.4764 37.9417 66.6824 37.9417 68.162Z" fill="#E3DEDF"/>
<path d="M33.5152 60.3665L33.9368 63.8353H36.5158L36.925 60.3665H33.5152Z" fill="#58595B"/>
<path d="M28.5431 63.8975L31.2709 66.0484L33.0936 64.2207L30.9485 61.473L28.5431 63.8975Z" fill="#58595B"/>
<path d="M27.5016 69.9151L30.9609 69.4923V66.9063L27.5016 66.496V69.9151Z" fill="#58595B"/>
<path d="M31.0229 74.9007L33.168 72.1654L31.3453 70.3378L28.6051 72.4887L31.0229 74.9007Z" fill="#58595B"/>
<path d="M37.0242 75.945L36.6026 72.4886H34.0236L33.6144 75.945H37.0242Z" fill="#58595B"/>
<path d="M41.9963 72.4141L39.2684 70.2632L37.4458 72.1033L39.5908 74.8385L41.9963 72.4141Z" fill="#58595B"/>
<path d="M43.0378 66.3965L39.5784 66.8192V69.4053L43.0378 69.8156V66.3965Z" fill="#58595B"/>
<path d="M39.5164 61.4109L37.3714 64.1462L39.194 65.9738L41.9343 63.8229L39.5164 61.4109Z" fill="#58595B"/>
<path d="M16.0942 72.7125C18.5047 72.7125 20.4588 70.7531 20.4588 68.336C20.4588 65.919 18.5047 63.9596 16.0942 63.9596C13.6838 63.9596 11.7297 65.919 11.7297 68.336C11.7297 70.7531 13.6838 72.7125 16.0942 72.7125Z" fill="#E3DEDF"/>
<path d="M19.2188 68.336C19.2188 70.0642 17.8177 71.4691 16.0942 71.4691C14.3707 71.4691 12.9696 70.0642 12.9696 68.336C12.9696 66.6078 14.3707 65.2029 16.0942 65.2029C17.8177 65.2029 19.2188 66.6078 19.2188 68.336Z" fill="#A7A9AC"/>
<path opacity="0.1" d="M13.0688 68.4355C13.0688 66.7073 14.4699 65.3023 16.1934 65.3023C17.0366 65.3023 17.7929 65.638 18.3509 66.1727C17.7805 65.5759 16.987 65.2029 16.0942 65.2029C14.3707 65.2029 12.9696 66.6078 12.9696 68.336C12.9696 69.2188 13.3416 70.0269 13.9368 70.5988C13.3912 70.0393 13.0688 69.2809 13.0688 68.4355Z" fill="#231F20"/>
<path opacity="0.1" d="M17.4086 68.3982C17.4086 69.0696 16.863 69.6167 16.1934 69.6167C15.5239 69.6167 14.9783 69.0696 14.9783 68.3982C14.9783 67.7269 15.5239 67.1798 16.1934 67.1798C16.863 67.1798 17.4086 67.7269 17.4086 68.3982Z" fill="#231F20"/>
<path d="M16.0942 69.5544C16.7653 69.5544 17.3094 69.0089 17.3094 68.336C17.3094 67.6631 16.7653 67.1176 16.0942 67.1176C15.4231 67.1176 14.8791 67.6631 14.8791 68.336C14.8791 69.0089 15.4231 69.5544 16.0942 69.5544Z" fill="#58595B"/>
<path d="M16.987 68.3361C16.987 68.8334 16.5778 69.2437 16.0818 69.2437C15.5859 69.2437 15.1767 68.8334 15.1767 68.3361C15.1767 67.8388 15.5859 67.4285 16.0818 67.4285C16.5778 67.4285 16.987 67.8388 16.987 68.3361Z" fill="#E3DEDF"/>
<path d="M15.4991 65.7126L15.6355 66.8814H16.5158L16.6522 65.7126H15.4991Z" fill="#58595B"/>
<path d="M13.8252 66.9063L14.7427 67.6274L15.3627 67.0057L14.6311 66.0857L13.8252 66.9063Z" fill="#58595B"/>
<path d="M13.4656 68.9328L14.6311 68.796V67.9133L13.4656 67.7765V68.9328Z" fill="#58595B"/>
<path d="M14.6559 70.6237L15.3751 69.6912L14.7675 69.0696L13.8376 69.8031L14.6559 70.6237Z" fill="#58595B"/>
<path d="M16.677 70.9718L16.5406 69.8031H15.6727L15.5363 70.9718H16.677Z" fill="#58595B"/>
<path d="M18.3633 69.7782L17.4458 69.0571L16.8258 69.6663L17.5449 70.5988L18.3633 69.7782Z" fill="#58595B"/>
<path d="M18.7105 67.7517L17.5449 67.8885V68.7588L18.7105 68.8955V67.7517Z" fill="#58595B"/>
<path d="M17.5326 66.0608L16.801 66.9933L17.421 67.6025L18.3385 66.8814L17.5326 66.0608Z" fill="#58595B"/>
<path d="M65.7046 51.3663C66.7971 45.2355 62.7262 39.3774 56.6121 38.2819C50.4979 37.1864 44.6557 41.2683 43.5632 47.3991C42.4707 53.53 46.5415 59.3881 52.6557 60.4836C58.7698 61.5791 64.612 57.4971 65.7046 51.3663Z" fill="#E3DEDF"/>
<path d="M62.6658 49.3757C62.6658 53.8267 59.0701 57.4323 54.6311 57.4323C50.1922 57.4323 46.5964 53.8267 46.5964 49.3757C46.5964 44.9247 50.1922 41.3191 54.6311 41.3191C59.0701 41.3191 62.6658 44.9247 62.6658 49.3757Z" fill="#58595B"/>
<path opacity="0.1" d="M46.8444 49.6244C46.8444 45.1733 50.4402 41.5678 54.8791 41.5678C57.0366 41.5678 58.9957 42.4256 60.434 43.8057C58.9709 42.2764 56.9126 41.3191 54.6311 41.3191C50.1922 41.3191 46.5964 44.9247 46.5964 49.3757C46.5964 51.6634 47.5511 53.7273 49.0763 55.1944C47.6999 53.7521 46.8444 51.7877 46.8444 49.6244Z" fill="#231F20"/>
<path opacity="0.1" d="M58.0285 49.5124C58.0285 51.2406 56.6398 52.6331 54.9163 52.6331C53.1928 52.6331 51.8041 51.2406 51.8041 49.5124C51.8041 47.7842 53.1928 46.3917 54.9163 46.3917C56.6398 46.3917 58.0285 47.7967 58.0285 49.5124Z" fill="#231F20"/>
<path d="M57.7557 49.3757C57.7557 51.1039 56.367 52.4964 54.6435 52.4964C52.92 52.4964 51.5313 51.1039 51.5313 49.3757C51.5313 47.6475 52.92 46.255 54.6435 46.255C56.3546 46.255 57.7557 47.6475 57.7557 49.3757Z" fill="#58595B"/>
<path d="M56.9498 49.3758C56.9498 50.6564 55.9082 51.7007 54.6311 51.7007C53.354 51.7007 52.3125 50.6564 52.3125 49.3758C52.3125 48.0952 53.354 47.0508 54.6311 47.0508C55.9206 47.0508 56.9498 48.0952 56.9498 49.3758Z" fill="#E3DEDF"/>
<path d="M53.1184 42.6122L53.478 45.621H55.7223L56.0818 42.6122H53.1184Z" fill="#58595B"/>
<path d="M48.7911 45.6706L51.1593 47.548L52.7464 45.9566L50.8865 43.5695L48.7911 45.6706Z" fill="#58595B"/>
<path d="M47.8859 50.905L50.8865 50.5444V48.294L47.8859 47.9335V50.905Z" fill="#58595B"/>
<path d="M50.9361 55.2441L52.8084 52.8569L51.2213 51.2655L48.8407 53.1429L50.9361 55.2441Z" fill="#58595B"/>
<path d="M56.1562 56.1393L55.7967 53.1305H53.5524L53.1928 56.1393H56.1562Z" fill="#58595B"/>
<path d="M60.4836 53.0808L58.1029 51.2158L56.5158 52.7948L58.3881 55.182L60.4836 53.0808Z" fill="#58595B"/>
<path d="M61.3763 47.8464L58.3881 48.207V50.4574L61.3763 50.8179V47.8464Z" fill="#58595B"/>
<path d="M58.3261 43.5198L56.4662 45.8945L58.0533 47.4859L60.4216 45.621L58.3261 43.5198Z" fill="#58595B"/>
<path opacity="0.1" d="M27.3032 40.9212C27.3032 36.9799 30.4898 33.797 34.4079 33.797C36.3174 33.797 38.0409 34.5555 39.318 35.7739C38.0285 34.4187 36.2058 33.5732 34.1848 33.5732C30.2542 33.5732 27.08 36.7685 27.08 40.6974C27.08 42.724 27.9231 44.5516 29.2746 45.8447C28.0595 44.5641 27.3032 42.8234 27.3032 40.9212Z" fill="#231F20"/>
<path opacity="0.1" d="M37.1978 40.8218C37.1978 42.3511 35.9578 43.5819 34.4451 43.5819C32.92 43.5819 31.6925 42.3386 31.6925 40.8218C31.6925 39.2925 32.9324 38.0616 34.4451 38.0616C35.9702 38.0616 37.1978 39.2925 37.1978 40.8218Z" fill="#231F20"/>
<path d="M37.2722 40.6974C37.2722 42.4007 35.8958 43.7808 34.1971 43.7808C32.4984 43.7808 31.1221 42.4007 31.1221 40.6974C31.1221 38.9941 32.4984 37.614 34.1971 37.614C35.8958 37.614 37.2722 38.9941 37.2722 40.6974Z" fill="#96989B"/>
<path d="M36.491 40.6975C36.491 41.9656 35.4619 42.9976 34.1971 42.9976C32.9324 42.9976 31.9033 41.9656 31.9033 40.6975C31.9033 39.4293 32.9324 38.3973 34.1971 38.3973C35.4619 38.3973 36.491 39.4293 36.491 40.6975Z" fill="#E3DEDF"/>
<path d="M50.7998 63.1018H49.2622V64.6435H50.7998V63.1018Z" fill="#414042"/>
<path d="M9.38623 62.1196C6.708 62.1196 4.53813 59.9314 4.53813 57.2583C4.53813 57.1215 4.53813 56.9847 4.55053 56.848L3.98016 44.2657C4.21575 39.6531 8.04712 35.9604 12.7092 35.9604C17.5325 35.9604 21.4507 39.8893 21.4507 44.7258C21.4507 45.8323 21.2399 46.9388 20.8307 47.9583L13.7508 59.3968C13.5896 59.7324 13.3788 60.0557 13.1432 60.3417L12.2133 61.212C11.3949 61.7963 10.403 62.1196 9.38623 62.1196ZM5.54247 45.882L6.16243 56.8728V56.935C6.15003 57.0469 6.15003 57.1464 6.15003 57.2583C6.15003 59.0486 7.60074 60.5033 9.38623 60.5033C10.1798 60.5033 10.9485 60.2049 11.5437 59.6703L11.7793 59.4589L11.8661 59.3346C12.0397 59.1232 12.1885 58.887 12.3125 58.6383L12.3621 58.5513L18.5245 48.9406L18.9585 48.1324C19.5164 47.088 19.8264 45.9193 19.8264 44.7258C19.8264 40.7845 16.6274 37.5892 12.7092 37.5892C8.79107 37.5892 5.57966 40.7845 5.57966 44.7133C5.57966 44.8252 5.57966 44.9247 5.59206 45.0241L5.62926 45.8696H5.54247V45.882Z" fill="#231F20"/>
<path d="M20.6324 44.7133C20.6324 49.1021 17.0862 52.658 12.7092 52.658C8.3323 52.658 4.78611 49.1021 4.78611 44.7133C4.78611 40.3244 8.3323 36.7686 12.7092 36.7686C17.0738 36.7686 20.6324 40.3244 20.6324 44.7133Z" fill="#E3DEDF"/>
<path d="M14.855 49.97C17.7492 48.7757 19.1298 45.4549 17.9387 42.5528C16.7476 39.6508 13.4359 38.2664 10.5417 39.4608C7.64756 40.6551 6.26695 43.9759 7.45804 46.8779C8.64913 49.78 11.9609 51.1643 14.855 49.97Z" fill="#A7A9AC"/>
<path opacity="0.1" d="M7.20397 44.8873C7.20397 41.7542 9.74581 39.2054 12.8704 39.2054C14.3955 39.2054 15.7719 39.8022 16.7886 40.7844C15.7595 39.7028 14.3087 39.0314 12.6968 39.0314C9.57222 39.0314 7.03038 41.5801 7.03038 44.7133C7.03038 46.3296 7.69994 47.7842 8.77867 48.8162C7.81153 47.7967 7.20397 46.4166 7.20397 44.8873Z" fill="#231F20"/>
<path opacity="0.1" d="M15.0899 44.8127C15.0899 46.0312 14.1103 47.0134 12.8952 47.0134C11.6801 47.0134 10.7006 46.0312 10.7006 44.8127C10.7006 43.5943 11.6801 42.6121 12.8952 42.6121C14.1103 42.6121 15.0899 43.5943 15.0899 44.8127Z" fill="#231F20"/>
<path d="M12.6968 46.9139C13.9089 46.9139 14.8915 45.9286 14.8915 44.7132C14.8915 43.4978 13.9089 42.5126 12.6968 42.5126C11.4848 42.5126 10.5022 43.4978 10.5022 44.7132C10.5022 45.9286 11.4848 46.9139 12.6968 46.9139Z" fill="#58595B"/>
<path d="M14.3335 44.7133C14.3335 45.6209 13.602 46.3545 12.6968 46.3545C11.7917 46.3545 11.0601 45.6209 11.0601 44.7133C11.0601 43.8057 11.7917 43.0721 12.6968 43.0721C13.602 43.0721 14.3335 43.8057 14.3335 44.7133Z" fill="#E3DEDF"/>
<path d="M11.6305 39.939L11.8785 42.065H13.4656L13.7136 39.939H11.6305Z" fill="#58595B"/>
<path d="M8.58028 42.1023L10.2542 43.4202L11.3701 42.3013L10.0558 40.6228L8.58028 42.1023Z" fill="#58595B"/>
<path d="M7.94792 45.7949L10.0558 45.5338V43.9548L7.94792 43.6937V45.7949Z" fill="#58595B"/>
<path d="M10.093 48.8534L11.4073 47.175L10.2914 46.0436L8.61748 47.3615L10.093 48.8534Z" fill="#58595B"/>
<path d="M13.7756 49.4876L13.5152 47.3616H11.9405L11.6801 49.4876H13.7756Z" fill="#58595B"/>
<path d="M16.8258 47.3243L15.1519 46.0063L14.036 47.1253L15.3503 48.8038L16.8258 47.3243Z" fill="#58595B"/>
<path d="M17.4581 43.6316L15.3379 43.8927V45.4841L17.4581 45.7328V43.6316Z" fill="#58595B"/>
<path d="M15.3007 40.5854L13.9864 42.2639L15.1023 43.3829L16.7762 42.065L15.3007 40.5854Z" fill="#58595B"/>
<path d="M13.4284 57.2458C13.4284 59.4838 11.6181 61.299 9.38624 61.299C7.15437 61.299 5.34408 59.4838 5.34408 57.2458C5.34408 55.0079 7.15437 53.1926 9.38624 53.1926C11.6181 53.1926 13.4284 55.0079 13.4284 57.2458Z" fill="#A7A9AC"/>
<path d="M42.2195 51.5017H32.92V52.3969H42.2195V51.5017Z" fill="#A7A9AC"/>
<path d="M42.2195 53.0435H32.92V53.9386H42.2195V53.0435Z" fill="#A7A9AC"/>
<path d="M11.3205 27.7297H8.97706V30.3282H11.3205V27.7297Z" fill="#F48292"/>
</svg>
