<svg width="100" height="101" viewBox="0 0 100 101" fill="none" xmlns="http://www.w3.org/2000/svg">
<path d="M82.6991 38.6442C80.4846 35.3736 77.4099 32.6511 73.7496 30.824C76.2386 12.187 75.8726 18.3263 58.0834 7.01621C56.235 5.91992 53.746 6.13918 52.1171 7.52781L42.948 15.1653L36.1032 11.6937H13.6105V99.9999H86.6706C85.4993 89.9141 90.0381 46.574 82.6991 38.6442ZM55.3748 11.4014C55.6493 11.31 69.8514 19.5505 69.9429 19.8063L68.9363 28.3756L47.8711 17.6685L55.3748 11.4014Z" fill="#F6E362"/>
<path d="M37.0366 11.6938H12.9334C12.4209 11.6938 12 11.2918 12 10.7619V0.931847C12 0.420245 12.4209 0 12.9334 0H37.0366C37.5491 0 37.97 0.420245 37.97 0.931847V10.7802C37.97 11.2918 37.5491 11.6938 37.0366 11.6938Z" fill="#3C3C3C"/>
<path d="M29.4597 44.0343H13.6105V47.7069H29.4597V44.0343Z" fill="#FFB846"/>
<path d="M29.4597 71.405H13.6105V75.0776H29.4597V71.405Z" fill="#FFB846"/>
<path d="M29.4597 85.0905H13.6105V88.763H29.4597V85.0905Z" fill="#FFB846"/>
<path d="M29.4597 57.7197H13.6105V61.3923H29.4597V57.7197Z" fill="#FFB846"/>
<path d="M37.7321 33.7109V88.763H72.194V50.4659L37.7321 33.7109Z" fill="white"/>
<path d="M62.2745 68.2076C59.8038 83.5374 35.3712 73.5977 54.8441 50.9227C54.8441 50.9227 62.2745 58.6516 62.2745 68.2076Z" fill="#575757"/>
<path d="M65.2394 79.9379H44.467V82.3314H65.2394V79.9379Z" fill="#575757"/>
<path d="M86.6706 96.8025H13.6105V100.018H86.6706V96.8025Z" fill="#575757"/>
<path d="M15.9166 2.52148H14.7635V9.6291H15.9166V2.52148Z" fill="#333333"/>
<path d="M20.7299 2.52148H19.5769V9.6291H20.7299V2.52148Z" fill="#333333"/>
<path d="M25.5615 2.52148H24.4085V9.6291H25.5615V2.52148Z" fill="#333333"/>
<path d="M30.3931 2.52148H29.2401V9.6291H30.3931V2.52148Z" fill="#333333"/>
<path d="M35.2065 2.52148H34.0535V9.6291H35.2065V2.52148Z" fill="#333333"/>
</svg>
