<svg width="162" height="35" viewBox="0 0 162 35" fill="none" xmlns="http://www.w3.org/2000/svg">
<path d="M15.6369 21.456C16.0929 22.032 16.3209 22.884 16.3209 24.012C16.3209 25.116 15.8889 26.016 15.0249 26.712C14.1849 27.384 13.0209 27.72 11.5329 27.72C10.6689 27.72 9.56487 27.624 8.22087 27.432C5.58087 27.024 3.87687 26.82 3.10887 26.82C2.36487 26.82 1.83687 26.844 1.52487 26.892C1.21287 26.916 0.804873 26.952 0.300873 27L4.65687 3.24H12.5409L8.94087 23.04C9.25287 23.088 9.55287 23.112 9.84087 23.112H10.7409C12.7569 23.112 14.3889 22.56 15.6369 21.456ZM28.8095 25.02C28.0655 26.82 26.5055 27.72 24.1295 27.72C22.9055 27.72 21.9095 27.3 21.1415 26.46C20.4935 25.716 20.1695 24.972 20.1695 24.228C20.1695 22.284 20.6135 19.416 21.5015 15.624L22.8335 8.64L30.1415 7.92L27.9455 19.296C27.5375 21.072 27.3335 22.272 27.3335 22.896C27.3335 24.264 27.8255 24.972 28.8095 25.02ZM23.4815 3.636C23.4815 2.7 23.8655 1.98 24.6335 1.476C25.4255 0.971999 26.3855 0.719999 27.5135 0.719999C28.6415 0.719999 29.5415 0.971999 30.2135 1.476C30.9095 1.98 31.2575 2.7 31.2575 3.636C31.2575 4.572 30.8735 5.28 30.1055 5.76C29.3615 6.24 28.4255 6.48 27.2975 6.48C26.1695 6.48 25.2455 6.24 24.5255 5.76C23.8295 5.28 23.4815 4.572 23.4815 3.636ZM48.5445 27.72C45.6405 27.72 44.1885 26.592 44.1885 24.336C44.2125 23.712 44.3205 22.872 44.5125 21.816L45.1605 18.504C45.8085 15.384 46.1325 13.476 46.1325 12.78C46.1325 11.388 45.7245 10.692 44.9085 10.692C43.5405 10.692 42.4965 12.48 41.7765 16.056L39.6525 27L32.4165 27.72L36.1605 8.604L42.0645 7.92L41.4885 11.448C42.6165 9.096 44.9085 7.92 48.3645 7.92C50.0445 7.92 51.2325 8.28 51.9285 9C52.6485 9.696 53.0085 10.836 53.0085 12.42C53.0085 13.908 52.6245 16.392 51.8565 19.872C51.4965 21.432 51.3165 22.512 51.3165 23.112C51.3165 23.688 51.4725 24.144 51.7845 24.48C52.1205 24.816 52.5285 25.008 53.0085 25.056C52.7685 25.872 52.2285 26.52 51.3885 27C50.5725 27.48 49.6245 27.72 48.5445 27.72ZM59.8828 11.952C60.6988 10.8 61.7188 9.84 62.9428 9.072C64.1908 8.304 65.5708 7.92 67.0828 7.92C68.5948 7.92 69.7108 8.16 70.4308 8.64L77.4868 7.92L75.0388 21.744C74.1988 26.448 72.8908 29.724 71.1148 31.572C69.4108 33.324 66.9028 34.2 63.5908 34.2C61.0708 34.2 59.0908 33.804 57.6508 33.012C56.2108 32.22 55.4908 31.164 55.4908 29.844C55.4908 28.86 55.8628 28.08 56.6068 27.504C57.3508 26.952 58.2988 26.676 59.4508 26.676C60.4588 26.676 61.3468 26.904 62.1148 27.36C62.5708 27.6 62.9068 27.888 63.1228 28.224C62.5708 28.704 62.2948 29.34 62.2948 30.132C62.2948 31.164 62.7748 31.68 63.7348 31.68C65.3428 31.68 66.6028 29.784 67.5148 25.992C67.7788 24.96 68.0188 23.928 68.2348 22.896C67.1548 24.216 65.3908 24.876 62.9428 24.876C61.2388 24.876 59.8948 24.468 58.9108 23.652C57.9268 22.836 57.4348 21.468 57.4348 19.548C57.4348 18.348 57.6388 17.076 58.0468 15.732C58.4548 14.364 59.0668 13.104 59.8828 11.952ZM64.5628 19.656C64.5628 21.288 64.9828 22.104 65.8228 22.104C66.3988 22.104 66.9628 21.792 67.5148 21.168C67.9468 20.664 68.2468 20.04 68.4148 19.296L70.2508 10.044C70.1308 10.02 70.0108 9.984 69.8908 9.936C69.6508 9.84 69.3748 9.792 69.0628 9.792C67.5988 9.792 66.4348 10.992 65.5708 13.392C64.8988 15.264 64.5628 17.352 64.5628 19.656Z" fill="#244289"/>
<path d="M96.1216 27.72C93.0496 27.72 91.3696 25.536 91.0816 21.168H84.8896C84.4096 22.272 84.0016 23.304 83.6656 24.264L82.7296 27H77.6896L89.0296 3.24H96.7696L98.2816 20.736C98.5216 23.256 99.1216 24.888 100.082 25.632C99.3856 27.024 98.0656 27.72 96.1216 27.72ZM86.0056 18.54H90.9736L90.5416 9.288V8.316L87.9856 13.968L86.0056 18.54ZM115.181 25.488C114.029 26.976 112.025 27.72 109.169 27.72C107.681 27.72 106.397 27.276 105.317 26.388C104.237 25.476 103.697 24.372 103.697 23.076C103.697 22.356 103.733 21.816 103.805 21.456L106.217 8.64L113.525 7.92L110.897 21.816C110.801 22.344 110.753 22.764 110.753 23.076C110.753 24.468 111.173 25.164 112.013 25.164C112.949 25.164 113.753 24.528 114.425 23.256C114.641 22.848 114.797 22.38 114.893 21.852L117.449 8.64L124.541 7.92L121.877 21.96C121.805 22.32 121.769 22.692 121.769 23.076C121.769 23.46 121.877 23.868 122.093 24.3C122.309 24.708 122.765 24.96 123.461 25.056C123.317 25.632 122.993 26.112 122.489 26.496C121.433 27.312 120.329 27.72 119.177 27.72C118.049 27.72 117.149 27.516 116.477 27.108C115.805 26.7 115.373 26.16 115.181 25.488ZM128.492 23.4C128.492 22.752 128.66 21.612 128.996 19.98L130.904 10.26H128.78L128.924 9.18C131.804 8.316 134.636 6.828 137.42 4.716H139.148L138.284 8.64H141.092L140.768 10.26H137.996L136.16 19.98C135.848 21.468 135.692 22.464 135.692 22.968C135.692 24.12 136.196 24.816 137.204 25.056C136.964 25.872 136.412 26.52 135.548 27C134.684 27.48 133.64 27.72 132.416 27.72C131.192 27.72 130.232 27.336 129.536 26.568C128.84 25.8 128.492 24.744 128.492 23.4ZM150.072 27.72C144.792 27.72 142.152 25.236 142.152 20.268C142.152 16.74 143.124 13.836 145.068 11.556C147.132 9.132 149.952 7.92 153.528 7.92C156.12 7.92 158.076 8.52 159.396 9.72C160.716 10.92 161.376 12.78 161.376 15.3C161.376 19.14 160.344 22.176 158.28 24.408C156.264 26.616 153.528 27.72 150.072 27.72ZM151.008 12.06C150.72 12.708 150.456 13.524 150.216 14.508C150 15.468 149.748 16.716 149.46 18.252C149.172 19.788 149.028 21.504 149.028 23.4C149.028 24.024 149.124 24.54 149.316 24.948C149.532 25.356 149.916 25.56 150.468 25.56C151.02 25.56 151.464 25.428 151.8 25.164C152.16 24.9 152.472 24.456 152.736 23.832C153.216 22.728 153.648 21.156 154.032 19.116C154.416 17.052 154.62 15.576 154.644 14.688C154.692 13.8 154.716 13.032 154.716 12.384C154.716 11.712 154.62 11.16 154.428 10.728C154.236 10.296 153.864 10.08 153.312 10.08C152.784 10.08 152.34 10.248 151.98 10.584C151.62 10.92 151.296 11.412 151.008 12.06Z" fill="#D0112B"/>
</svg>
